<svg width="32" height="29" viewBox="0 0 32 29" fill="none" xmlns="http://www.w3.org/2000/svg">
<mask id="mask0_1_1723" style="mask-type:alpha" maskUnits="userSpaceOnUse" x="0" y="0" width="32" height="29">
<path fill-rule="evenodd" clip-rule="evenodd" d="M15.9567 0.0970459C7.19242 0.0970459 0.0793457 6.42944 0.0793457 14.2318C0.0793457 22.0343 7.19242 28.3666 15.9567 28.3666C24.7211 28.3666 31.8341 22.0343 31.8341 14.2318C31.8341 6.42944 24.7211 0.0970459 15.9567 0.0970459ZM15.9567 25.5397C8.93893 25.5397 3.25482 20.4794 3.25482 14.2318C3.25482 7.98426 8.93893 2.92401 15.9567 2.92401C22.9745 2.92401 28.6586 7.98426 28.6586 14.2318C28.6586 20.4794 22.9745 25.5397 15.9567 25.5397ZM23.8954 14.2318C23.8954 18.133 20.3389 21.2992 15.9567 21.2992C11.5746 21.2992 8.01804 18.133 8.01804 14.2318C8.01804 10.3306 11.5746 7.16445 15.9567 7.16445C20.3389 7.16445 23.8954 10.3306 23.8954 14.2318Z" fill="white"/>
</mask>
<g mask="url(#mask0_1_1723)">
<path d="M35.0095 -2.72986H-3.09619V31.1937H35.0095V-2.72986Z" fill="#7C55C5"/>
</g>
</svg>
