<svg width="21" height="18" viewBox="0 0 21 18" fill="none" xmlns="http://www.w3.org/2000/svg">
<path d="M6.71823 9.01758C7.5121 10.5159 8.94169 11.7169 10.5294 12.4519C10.6882 12.4943 10.8467 12.5226 11.0054 12.5085C11.1642 12.5085 11.1645 12.466 11.3233 12.3953L13.8631 10.9259C13.8631 10.8552 14.0221 10.8127 14.1809 10.8127C14.3397 10.7986 14.4988 10.8124 14.4988 10.8548L19.262 12.6362C19.4208 12.6927 19.5799 12.7916 19.5799 12.9329C19.7386 13.0602 19.738 13.2157 19.738 13.3712C19.5792 14.3889 18.9441 15.3354 18.1503 16.0139C17.1976 16.6924 16.0862 17.074 14.9748 17.074C11.323 17.074 7.98873 15.8022 5.44835 13.5548C2.90797 11.2932 1.479 8.23975 1.479 5.05942C1.479 4.02758 1.95564 3.02437 2.59073 2.24695C3.3846 1.48367 4.49509 0.974491 5.60651 0.847278C5.76528 0.833143 5.92529 0.861495 6.08407 0.932169C6.24284 1.01698 6.40038 1.13039 6.40038 1.27174L8.46568 5.41279C8.46568 5.52587 8.46568 5.63928 8.46568 5.75236C8.46568 5.86544 8.46568 5.97849 8.46568 6.07743L6.71823 8.32464C6.71823 8.42359 6.56008 8.53699 6.56008 8.66421C6.56008 8.77729 6.55946 8.9045 6.71823 9.01758Z" stroke="#4E2BAC" stroke-linecap="round" stroke-linejoin="round"/>
</svg>
