<svg width="32" height="29" viewBox="0 0 32 29" fill="none" xmlns="http://www.w3.org/2000/svg">
<mask id="mask0_1_1717" style="mask-type:alpha" maskUnits="userSpaceOnUse" x="0" y="0" width="32" height="29">
<path fill-rule="evenodd" clip-rule="evenodd" d="M0.0793457 14.6927C0.0793457 6.89025 7.19242 0.557861 15.9567 0.557861C24.7211 0.557861 31.8341 6.89025 31.8341 14.6927C31.8341 22.4951 24.7211 28.8275 15.9567 28.8275C7.19242 28.8275 0.0793457 22.4951 0.0793457 14.6927ZM3.25482 14.6927C3.25482 20.9402 8.93893 26.0005 15.9567 26.0005C22.9745 26.0005 28.6586 20.9402 28.6586 14.6927C28.6586 8.44508 22.9745 3.38482 15.9567 3.38482C8.93893 3.38482 3.25482 8.44508 3.25482 14.6927Z" fill="white"/>
</mask>
<g mask="url(#mask0_1_1717)">
<path d="M35.0095 -2.2691H-3.09619V31.6544H35.0095V-2.2691Z" fill="#424242"/>
</g>
</svg>
